<svg xmlns="http://www.w3.org/2000/svg" version="1.1" width="210mm" height="297mm" viewBox="0 0 210 297" shape-rendering="crispEdges">
<title>Emre Kalem arm - ChArUco DICT_4X4_50 5x7 25 mm intrinsics board (A4, print at 100%)</title>
<rect x="0" y="0" width="210" height="297" fill="#ffffff"/>
<text x="10" y="11" font-family="Helvetica, Arial, sans-serif" font-size="4.6" font-weight="bold" fill="#000000" text-anchor="start">FactoryLM / Emre Kalem arm - ChArUco camera-intrinsics board</text>
<text x="10" y="16.2" font-family="Helvetica, Arial, sans-serif" font-size="2.5" font-weight="bold" fill="#000000" text-anchor="start">DICT_4X4_50  -  5 x 7 squares  -  square 25.000 mm  -  marker 18.750 mm  -  marker ids 20-36</text>
<text x="10" y="19.8" font-family="Helvetica, Arial, sans-serif" font-size="2.3" font-weight="normal" fill="#000000" text-anchor="start">24 interior ChArUco corners  -  17 ArUco markers  -  board 125.0 x 175.0 mm  -  A4 portrait, print at 100%</text>
<text x="10" y="23.4" font-family="Helvetica, Arial, sans-serif" font-size="2.1" font-weight="normal" fill="#555555" text-anchor="start">Generated by Software/arm-vision/make_charuco_board.py. Do not edit this SVG by hand. Ids are 20+ on purpose: the arm's stickers are ids 0-12.</text>
<line x1="10" y1="25.6" x2="200" y2="25.6" stroke="#000000" stroke-width="0.35"/>
<line x1="10" y1="30" x2="110" y2="30" stroke="#000000" stroke-width="0.4"/>
<line x1="10" y1="30" x2="10" y2="33" stroke="#9a9a9a" stroke-width="0.3"/>
<text x="10" y="35.8" font-family="Helvetica, Arial, sans-serif" font-size="2.1" font-weight="normal" fill="#000000" text-anchor="middle">0</text>
<line x1="15" y1="30" x2="15" y2="31.6" stroke="#9a9a9a" stroke-width="0.2"/>
<line x1="20" y1="30" x2="20" y2="31.6" stroke="#9a9a9a" stroke-width="0.2"/>
<line x1="25" y1="30" x2="25" y2="31.6" stroke="#9a9a9a" stroke-width="0.2"/>
<line x1="30" y1="30" x2="30" y2="31.6" stroke="#9a9a9a" stroke-width="0.2"/>
<line x1="35" y1="30" x2="35" y2="33" stroke="#9a9a9a" stroke-width="0.3"/>
<text x="35" y="35.8" font-family="Helvetica, Arial, sans-serif" font-size="2.1" font-weight="normal" fill="#000000" text-anchor="middle">25</text>
<line x1="40" y1="30" x2="40" y2="31.6" stroke="#9a9a9a" stroke-width="0.2"/>
<line x1="45" y1="30" x2="45" y2="31.6" stroke="#9a9a9a" stroke-width="0.2"/>
<line x1="50" y1="30" x2="50" y2="31.6" stroke="#9a9a9a" stroke-width="0.2"/>
<line x1="55" y1="30" x2="55" y2="31.6" stroke="#9a9a9a" stroke-width="0.2"/>
<line x1="60" y1="30" x2="60" y2="33" stroke="#9a9a9a" stroke-width="0.3"/>
<text x="60" y="35.8" font-family="Helvetica, Arial, sans-serif" font-size="2.1" font-weight="normal" fill="#000000" text-anchor="middle">50</text>
<line x1="65" y1="30" x2="65" y2="31.6" stroke="#9a9a9a" stroke-width="0.2"/>
<line x1="70" y1="30" x2="70" y2="31.6" stroke="#9a9a9a" stroke-width="0.2"/>
<line x1="75" y1="30" x2="75" y2="31.6" stroke="#9a9a9a" stroke-width="0.2"/>
<line x1="80" y1="30" x2="80" y2="31.6" stroke="#9a9a9a" stroke-width="0.2"/>
<line x1="85" y1="30" x2="85" y2="33" stroke="#9a9a9a" stroke-width="0.3"/>
<text x="85" y="35.8" font-family="Helvetica, Arial, sans-serif" font-size="2.1" font-weight="normal" fill="#000000" text-anchor="middle">75</text>
<line x1="90" y1="30" x2="90" y2="31.6" stroke="#9a9a9a" stroke-width="0.2"/>
<line x1="95" y1="30" x2="95" y2="31.6" stroke="#9a9a9a" stroke-width="0.2"/>
<line x1="100" y1="30" x2="100" y2="31.6" stroke="#9a9a9a" stroke-width="0.2"/>
<line x1="105" y1="30" x2="105" y2="31.6" stroke="#9a9a9a" stroke-width="0.2"/>
<line x1="110" y1="30" x2="110" y2="33" stroke="#9a9a9a" stroke-width="0.3"/>
<text x="110" y="35.8" font-family="Helvetica, Arial, sans-serif" font-size="2.1" font-weight="normal" fill="#000000" text-anchor="middle">100</text>
<text x="10" y="28.4" font-family="Helvetica, Arial, sans-serif" font-size="2.5" font-weight="bold" fill="#000000" text-anchor="start">100 mm - AND EXACTLY 4 BOARD SQUARES. MEASURE BOTH.</text>
<text x="114" y="30.4" font-family="Helvetica, Arial, sans-serif" font-size="2.1" font-weight="normal" fill="#000000" text-anchor="start">If this is not 100.0 mm the printer rescaled the page.</text>
<text x="114" y="33.4" font-family="Helvetica, Arial, sans-serif" font-size="2.1" font-weight="normal" fill="#000000" text-anchor="start">Reprint at Actual Size / 100%. Do NOT use Fit to Page.</text>
<text x="114" y="36.4" font-family="Helvetica, Arial, sans-serif" font-size="2.1" font-weight="normal" fill="#000000" text-anchor="start">Then calliper 4 squares and pass it to --callipered-square-mm.</text>
<g transform="translate(42.5,51)">
<rect x="-0.01" y="-0.01" width="25.02" height="25.02" fill="#000000"/>
<rect x="49.99" y="-0.01" width="25.02" height="25.02" fill="#000000"/>
<rect x="99.99" y="-0.01" width="25.02" height="25.02" fill="#000000"/>
<rect x="24.99" y="24.99" width="25.02" height="25.02" fill="#000000"/>
<rect x="74.99" y="24.99" width="25.02" height="25.02" fill="#000000"/>
<rect x="-0.01" y="49.99" width="25.02" height="25.02" fill="#000000"/>
<rect x="49.99" y="49.99" width="25.02" height="25.02" fill="#000000"/>
<rect x="99.99" y="49.99" width="25.02" height="25.02" fill="#000000"/>
<rect x="24.99" y="74.99" width="25.02" height="25.02" fill="#000000"/>
<rect x="74.99" y="74.99" width="25.02" height="25.02" fill="#000000"/>
<rect x="-0.01" y="99.99" width="25.02" height="25.02" fill="#000000"/>
<rect x="49.99" y="99.99" width="25.02" height="25.02" fill="#000000"/>
<rect x="99.99" y="99.99" width="25.02" height="25.02" fill="#000000"/>
<rect x="24.99" y="124.99" width="25.02" height="25.02" fill="#000000"/>
<rect x="74.99" y="124.99" width="25.02" height="25.02" fill="#000000"/>
<rect x="-0.01" y="149.99" width="25.02" height="25.02" fill="#000000"/>
<rect x="49.99" y="149.99" width="25.02" height="25.02" fill="#000000"/>
<rect x="99.99" y="149.99" width="25.02" height="25.02" fill="#000000"/>
<rect x="28.115" y="3.115" width="18.77" height="3.145" fill="#000000"/>
<rect x="28.115" y="6.24" width="3.145" height="3.145" fill="#000000"/>
<rect x="34.365" y="6.24" width="12.52" height="3.145" fill="#000000"/>
<rect x="28.115" y="9.365" width="6.27" height="3.145" fill="#000000"/>
<rect x="40.615" y="9.365" width="6.27" height="3.145" fill="#000000"/>
<rect x="28.115" y="12.49" width="3.145" height="3.145" fill="#000000"/>
<rect x="34.365" y="12.49" width="12.52" height="3.145" fill="#000000"/>
<rect x="28.115" y="15.615" width="3.145" height="3.145" fill="#000000"/>
<rect x="34.365" y="15.615" width="3.145" height="3.145" fill="#000000"/>
<rect x="43.74" y="15.615" width="3.145" height="3.145" fill="#000000"/>
<rect x="28.115" y="18.74" width="18.77" height="3.145" fill="#000000"/>
<rect x="78.115" y="3.115" width="18.77" height="3.145" fill="#000000"/>
<rect x="78.115" y="6.24" width="3.145" height="3.145" fill="#000000"/>
<rect x="84.365" y="6.24" width="3.145" height="3.145" fill="#000000"/>
<rect x="93.74" y="6.24" width="3.145" height="3.145" fill="#000000"/>
<rect x="78.115" y="9.365" width="18.77" height="3.145" fill="#000000"/>
<rect x="78.115" y="12.49" width="9.395" height="3.145" fill="#000000"/>
<rect x="90.615" y="12.49" width="6.27" height="3.145" fill="#000000"/>
<rect x="78.115" y="15.615" width="3.145" height="3.145" fill="#000000"/>
<rect x="84.365" y="15.615" width="3.145" height="3.145" fill="#000000"/>
<rect x="93.74" y="15.615" width="3.145" height="3.145" fill="#000000"/>
<rect x="78.115" y="18.74" width="18.77" height="3.145" fill="#000000"/>
<rect x="3.115" y="28.115" width="18.77" height="3.145" fill="#000000"/>
<rect x="3.115" y="31.24" width="3.145" height="3.145" fill="#000000"/>
<rect x="12.49" y="31.24" width="9.395" height="3.145" fill="#000000"/>
<rect x="3.115" y="34.365" width="3.145" height="3.145" fill="#000000"/>
<rect x="12.49" y="34.365" width="9.395" height="3.145" fill="#000000"/>
<rect x="3.115" y="37.49" width="3.145" height="3.145" fill="#000000"/>
<rect x="12.49" y="37.49" width="3.145" height="3.145" fill="#000000"/>
<rect x="18.74" y="37.49" width="3.145" height="3.145" fill="#000000"/>
<rect x="3.115" y="40.615" width="6.27" height="3.145" fill="#000000"/>
<rect x="12.49" y="40.615" width="3.145" height="3.145" fill="#000000"/>
<rect x="18.74" y="40.615" width="3.145" height="3.145" fill="#000000"/>
<rect x="3.115" y="43.74" width="18.77" height="3.145" fill="#000000"/>
<rect x="53.115" y="28.115" width="18.77" height="3.145" fill="#000000"/>
<rect x="53.115" y="31.24" width="3.145" height="3.145" fill="#000000"/>
<rect x="62.49" y="31.24" width="3.145" height="3.145" fill="#000000"/>
<rect x="68.74" y="31.24" width="3.145" height="3.145" fill="#000000"/>
<rect x="53.115" y="34.365" width="3.145" height="3.145" fill="#000000"/>
<rect x="62.49" y="34.365" width="3.145" height="3.145" fill="#000000"/>
<rect x="68.74" y="34.365" width="3.145" height="3.145" fill="#000000"/>
<rect x="53.115" y="37.49" width="3.145" height="3.145" fill="#000000"/>
<rect x="59.365" y="37.49" width="12.52" height="3.145" fill="#000000"/>
<rect x="53.115" y="40.615" width="9.395" height="3.145" fill="#000000"/>
<rect x="65.615" y="40.615" width="6.27" height="3.145" fill="#000000"/>
<rect x="53.115" y="43.74" width="18.77" height="3.145" fill="#000000"/>
<rect x="103.115" y="28.115" width="18.77" height="3.145" fill="#000000"/>
<rect x="103.115" y="31.24" width="3.145" height="3.145" fill="#000000"/>
<rect x="118.74" y="31.24" width="3.145" height="3.145" fill="#000000"/>
<rect x="103.115" y="34.365" width="3.145" height="3.145" fill="#000000"/>
<rect x="115.615" y="34.365" width="6.27" height="3.145" fill="#000000"/>
<rect x="103.115" y="37.49" width="6.27" height="3.145" fill="#000000"/>
<rect x="112.49" y="37.49" width="9.395" height="3.145" fill="#000000"/>
<rect x="103.115" y="40.615" width="6.27" height="3.145" fill="#000000"/>
<rect x="118.74" y="40.615" width="3.145" height="3.145" fill="#000000"/>
<rect x="103.115" y="43.74" width="18.77" height="3.145" fill="#000000"/>
<rect x="28.115" y="53.115" width="18.77" height="3.145" fill="#000000"/>
<rect x="28.115" y="56.24" width="3.145" height="3.145" fill="#000000"/>
<rect x="34.365" y="56.24" width="6.27" height="3.145" fill="#000000"/>
<rect x="43.74" y="56.24" width="3.145" height="3.145" fill="#000000"/>
<rect x="28.115" y="59.365" width="6.27" height="3.145" fill="#000000"/>
<rect x="37.49" y="59.365" width="9.395" height="3.145" fill="#000000"/>
<rect x="28.115" y="62.49" width="6.27" height="3.145" fill="#000000"/>
<rect x="43.74" y="62.49" width="3.145" height="3.145" fill="#000000"/>
<rect x="28.115" y="65.615" width="12.52" height="3.145" fill="#000000"/>
<rect x="43.74" y="65.615" width="3.145" height="3.145" fill="#000000"/>
<rect x="28.115" y="68.74" width="18.77" height="3.145" fill="#000000"/>
<rect x="78.115" y="53.115" width="18.77" height="3.145" fill="#000000"/>
<rect x="78.115" y="56.24" width="3.145" height="3.145" fill="#000000"/>
<rect x="84.365" y="56.24" width="3.145" height="3.145" fill="#000000"/>
<rect x="90.615" y="56.24" width="6.27" height="3.145" fill="#000000"/>
<rect x="78.115" y="59.365" width="3.145" height="3.145" fill="#000000"/>
<rect x="87.49" y="59.365" width="9.395" height="3.145" fill="#000000"/>
<rect x="78.115" y="62.49" width="3.145" height="3.145" fill="#000000"/>
<rect x="90.615" y="62.49" width="6.27" height="3.145" fill="#000000"/>
<rect x="78.115" y="65.615" width="6.27" height="3.145" fill="#000000"/>
<rect x="87.49" y="65.615" width="9.395" height="3.145" fill="#000000"/>
<rect x="78.115" y="68.74" width="18.77" height="3.145" fill="#000000"/>
<rect x="3.115" y="78.115" width="18.77" height="3.145" fill="#000000"/>
<rect x="3.115" y="81.24" width="3.145" height="3.145" fill="#000000"/>
<rect x="9.365" y="81.24" width="3.145" height="3.145" fill="#000000"/>
<rect x="15.615" y="81.24" width="6.27" height="3.145" fill="#000000"/>
<rect x="3.115" y="84.365" width="6.27" height="3.145" fill="#000000"/>
<rect x="12.49" y="84.365" width="3.145" height="3.145" fill="#000000"/>
<rect x="18.74" y="84.365" width="3.145" height="3.145" fill="#000000"/>
<rect x="3.115" y="87.49" width="6.27" height="3.145" fill="#000000"/>
<rect x="12.49" y="87.49" width="3.145" height="3.145" fill="#000000"/>
<rect x="18.74" y="87.49" width="3.145" height="3.145" fill="#000000"/>
<rect x="3.115" y="90.615" width="6.27" height="3.145" fill="#000000"/>
<rect x="12.49" y="90.615" width="9.395" height="3.145" fill="#000000"/>
<rect x="3.115" y="93.74" width="18.77" height="3.145" fill="#000000"/>
<rect x="53.115" y="78.115" width="18.77" height="3.145" fill="#000000"/>
<rect x="53.115" y="81.24" width="9.395" height="3.145" fill="#000000"/>
<rect x="65.615" y="81.24" width="6.27" height="3.145" fill="#000000"/>
<rect x="53.115" y="84.365" width="12.52" height="3.145" fill="#000000"/>
<rect x="68.74" y="84.365" width="3.145" height="3.145" fill="#000000"/>
<rect x="53.115" y="87.49" width="9.395" height="3.145" fill="#000000"/>
<rect x="65.615" y="87.49" width="6.27" height="3.145" fill="#000000"/>
<rect x="53.115" y="90.615" width="9.395" height="3.145" fill="#000000"/>
<rect x="68.74" y="90.615" width="3.145" height="3.145" fill="#000000"/>
<rect x="53.115" y="93.74" width="18.77" height="3.145" fill="#000000"/>
<rect x="103.115" y="78.115" width="18.77" height="3.145" fill="#000000"/>
<rect x="103.115" y="81.24" width="9.395" height="3.145" fill="#000000"/>
<rect x="118.74" y="81.24" width="3.145" height="3.145" fill="#000000"/>
<rect x="103.115" y="84.365" width="6.27" height="3.145" fill="#000000"/>
<rect x="112.49" y="84.365" width="9.395" height="3.145" fill="#000000"/>
<rect x="103.115" y="87.49" width="6.27" height="3.145" fill="#000000"/>
<rect x="115.615" y="87.49" width="6.27" height="3.145" fill="#000000"/>
<rect x="103.115" y="90.615" width="3.145" height="3.145" fill="#000000"/>
<rect x="118.74" y="90.615" width="3.145" height="3.145" fill="#000000"/>
<rect x="103.115" y="93.74" width="18.77" height="3.145" fill="#000000"/>
<rect x="28.115" y="103.115" width="18.77" height="3.145" fill="#000000"/>
<rect x="28.115" y="106.24" width="6.27" height="3.145" fill="#000000"/>
<rect x="37.49" y="106.24" width="9.395" height="3.145" fill="#000000"/>
<rect x="28.115" y="109.365" width="6.27" height="3.145" fill="#000000"/>
<rect x="37.49" y="109.365" width="9.395" height="3.145" fill="#000000"/>
<rect x="28.115" y="112.49" width="12.52" height="3.145" fill="#000000"/>
<rect x="43.74" y="112.49" width="3.145" height="3.145" fill="#000000"/>
<rect x="28.115" y="115.615" width="6.27" height="3.145" fill="#000000"/>
<rect x="37.49" y="115.615" width="3.145" height="3.145" fill="#000000"/>
<rect x="43.74" y="115.615" width="3.145" height="3.145" fill="#000000"/>
<rect x="28.115" y="118.74" width="18.77" height="3.145" fill="#000000"/>
<rect x="78.115" y="103.115" width="18.77" height="3.145" fill="#000000"/>
<rect x="78.115" y="106.24" width="6.27" height="3.145" fill="#000000"/>
<rect x="87.49" y="106.24" width="3.145" height="3.145" fill="#000000"/>
<rect x="93.74" y="106.24" width="3.145" height="3.145" fill="#000000"/>
<rect x="78.115" y="109.365" width="6.27" height="3.145" fill="#000000"/>
<rect x="93.74" y="109.365" width="3.145" height="3.145" fill="#000000"/>
<rect x="78.115" y="112.49" width="3.145" height="3.145" fill="#000000"/>
<rect x="84.365" y="112.49" width="3.145" height="3.145" fill="#000000"/>
<rect x="93.74" y="112.49" width="3.145" height="3.145" fill="#000000"/>
<rect x="78.115" y="115.615" width="9.395" height="3.145" fill="#000000"/>
<rect x="90.615" y="115.615" width="6.27" height="3.145" fill="#000000"/>
<rect x="78.115" y="118.74" width="18.77" height="3.145" fill="#000000"/>
<rect x="3.115" y="128.115" width="18.77" height="3.145" fill="#000000"/>
<rect x="3.115" y="131.24" width="3.145" height="3.145" fill="#000000"/>
<rect x="9.365" y="131.24" width="6.27" height="3.145" fill="#000000"/>
<rect x="18.74" y="131.24" width="3.145" height="3.145" fill="#000000"/>
<rect x="3.115" y="134.365" width="3.145" height="3.145" fill="#000000"/>
<rect x="15.615" y="134.365" width="6.27" height="3.145" fill="#000000"/>
<rect x="3.115" y="137.49" width="3.145" height="3.145" fill="#000000"/>
<rect x="12.49" y="137.49" width="9.395" height="3.145" fill="#000000"/>
<rect x="3.115" y="140.615" width="3.145" height="3.145" fill="#000000"/>
<rect x="18.74" y="140.615" width="3.145" height="3.145" fill="#000000"/>
<rect x="3.115" y="143.74" width="18.77" height="3.145" fill="#000000"/>
<rect x="53.115" y="128.115" width="18.77" height="3.145" fill="#000000"/>
<rect x="53.115" y="131.24" width="3.145" height="3.145" fill="#000000"/>
<rect x="68.74" y="131.24" width="3.145" height="3.145" fill="#000000"/>
<rect x="53.115" y="134.365" width="18.77" height="3.145" fill="#000000"/>
<rect x="53.115" y="137.49" width="3.145" height="3.145" fill="#000000"/>
<rect x="62.49" y="137.49" width="9.395" height="3.145" fill="#000000"/>
<rect x="53.115" y="140.615" width="3.145" height="3.145" fill="#000000"/>
<rect x="59.365" y="140.615" width="3.145" height="3.145" fill="#000000"/>
<rect x="68.74" y="140.615" width="3.145" height="3.145" fill="#000000"/>
<rect x="53.115" y="143.74" width="18.77" height="3.145" fill="#000000"/>
<rect x="103.115" y="128.115" width="18.77" height="3.145" fill="#000000"/>
<rect x="103.115" y="131.24" width="18.77" height="3.145" fill="#000000"/>
<rect x="103.115" y="134.365" width="3.145" height="3.145" fill="#000000"/>
<rect x="109.365" y="134.365" width="12.52" height="3.145" fill="#000000"/>
<rect x="103.115" y="137.49" width="3.145" height="3.145" fill="#000000"/>
<rect x="109.365" y="137.49" width="3.145" height="3.145" fill="#000000"/>
<rect x="115.615" y="137.49" width="6.27" height="3.145" fill="#000000"/>
<rect x="103.115" y="140.615" width="3.145" height="3.145" fill="#000000"/>
<rect x="115.615" y="140.615" width="6.27" height="3.145" fill="#000000"/>
<rect x="103.115" y="143.74" width="18.77" height="3.145" fill="#000000"/>
<rect x="28.115" y="153.115" width="18.77" height="3.145" fill="#000000"/>
<rect x="28.115" y="156.24" width="18.77" height="3.145" fill="#000000"/>
<rect x="28.115" y="159.365" width="3.145" height="3.145" fill="#000000"/>
<rect x="34.365" y="159.365" width="6.27" height="3.145" fill="#000000"/>
<rect x="43.74" y="159.365" width="3.145" height="3.145" fill="#000000"/>
<rect x="28.115" y="162.49" width="9.395" height="3.145" fill="#000000"/>
<rect x="40.615" y="162.49" width="6.27" height="3.145" fill="#000000"/>
<rect x="28.115" y="165.615" width="3.145" height="3.145" fill="#000000"/>
<rect x="34.365" y="165.615" width="6.27" height="3.145" fill="#000000"/>
<rect x="43.74" y="165.615" width="3.145" height="3.145" fill="#000000"/>
<rect x="28.115" y="168.74" width="18.77" height="3.145" fill="#000000"/>
<rect x="78.115" y="153.115" width="18.77" height="3.145" fill="#000000"/>
<rect x="78.115" y="156.24" width="12.52" height="3.145" fill="#000000"/>
<rect x="93.74" y="156.24" width="3.145" height="3.145" fill="#000000"/>
<rect x="78.115" y="159.365" width="3.145" height="3.145" fill="#000000"/>
<rect x="84.365" y="159.365" width="12.52" height="3.145" fill="#000000"/>
<rect x="78.115" y="162.49" width="6.27" height="3.145" fill="#000000"/>
<rect x="93.74" y="162.49" width="3.145" height="3.145" fill="#000000"/>
<rect x="78.115" y="165.615" width="6.27" height="3.145" fill="#000000"/>
<rect x="87.49" y="165.615" width="3.145" height="3.145" fill="#000000"/>
<rect x="93.74" y="165.615" width="3.145" height="3.145" fill="#000000"/>
<rect x="78.115" y="168.74" width="18.77" height="3.145" fill="#000000"/>
</g>
<line x1="10" y1="238" x2="200" y2="238" stroke="#000000" stroke-width="0.35"/>
<text x="10" y="242.6" font-family="Helvetica, Arial, sans-serif" font-size="3.1" font-weight="bold" fill="#000000" text-anchor="start">WHAT THIS BOARD IS FOR</text>
<text x="10" y="246.8" font-family="Helvetica, Arial, sans-serif" font-size="2.15" font-weight="normal" fill="#000000" text-anchor="start">This is CAMERA-CALIBRATION EQUIPMENT - bench kit, never glued to the arm. Every marker size in Software/vision/markers.csv</text>
<text x="10" y="249.65" font-family="Helvetica, Arial, sans-serif" font-size="2.15" font-weight="normal" fill="#000000" text-anchor="start">and every grade in docs/marker_placement_table.csv rests on an ASSUMED ~60 deg field of view (f_px ~ 1108) that has NEVER</text>
<text x="10" y="252.5" font-family="Helvetica, Arial, sans-serif" font-size="2.15" font-weight="normal" fill="#000000" text-anchor="start">been checked against a camera - open item A1. This board is how you settle it.</text>
<text x="10" y="256.65" font-family="Helvetica, Arial, sans-serif" font-size="2.15" font-weight="normal" fill="#000000" text-anchor="start">PROCEDURE  1. Print at 100% on matte stock; verify the 100 mm rule.  2. Mount the sheet FLAT on rigid board - a bowed sheet is</text>
<text x="10" y="259.5" font-family="Helvetica, Arial, sans-serif" font-size="2.15" font-weight="normal" fill="#000000" text-anchor="start">not a plane and silently corrupts the solve.  3. Capture &gt;= 12 stills: board filling about a third of the frame, tilted 25-45</text>
<text x="10" y="262.35" font-family="Helvetica, Arial, sans-serif" font-size="2.15" font-weight="normal" fill="#000000" text-anchor="start">deg in varied directions, at varied distance, pushed into all four corners of the image.  4. Run:</text>
<text x="10" y="265.2" font-family="Helvetica, Arial, sans-serif" font-size="2.15" font-weight="normal" fill="#000000" text-anchor="start">     python Software/arm-vision/calibrate_intrinsics.py --captures &lt;dir&gt; --capture-source camera --callipered-square-mm &lt;mm&gt;</text>
<text x="10" y="268.05" font-family="Helvetica, Arial, sans-serif" font-size="2.15" font-weight="normal" fill="#000000" text-anchor="start">That script REFUSES to emit intrinsics unless the capture set passes its gate. Full procedure: docs/marker_system.md section 9.</text>
<text x="10" y="272.2" font-family="Helvetica, Arial, sans-serif" font-size="2.15" font-weight="normal" fill="#000000" text-anchor="start">MIS-SCALE RISK HERE IS NOT THE STICKER-SHEET RISK. Camera intrinsics (fx, fy, cx, cy, distortion) do NOT depend on this</text>
<text x="10" y="275.05" font-family="Helvetica, Arial, sans-serif" font-size="2.15" font-weight="normal" fill="#000000" text-anchor="start">board's true square size - a board printed at 96% still gives the correct focal length. What mis-scale corrupts is DISTANCE.</text>
<text x="10" y="279.2" font-family="Helvetica, Arial, sans-serif" font-size="2.15" font-weight="normal" fill="#000000" text-anchor="start">NOTHING ON THIS SHEET IS AN OBSERVATION. It is a blank. The ~60 deg field of view stays an ASSUMPTION and every size derived</text>
<text x="10" y="282.05" font-family="Helvetica, Arial, sans-serif" font-size="2.15" font-weight="normal" fill="#000000" text-anchor="start">from it stays UNVERIFIED until a real camera has passed the gate in calibrate_intrinsics.py.</text>
</svg>
