<svg xmlns="http://www.w3.org/2000/svg" version="1.1" width="210mm" height="297mm" viewBox="0 0 210 297" shape-rendering="crispEdges">
<title>Emre Kalem arm - ArUco DICT_4X4_50 marker print sheet (A4, print at 100%)</title>
<rect x="0" y="0" width="210" height="297" fill="#ffffff"/>
<text x="10" y="14" font-family="Helvetica, Arial, sans-serif" font-size="5" font-weight="bold" fill="#000000" text-anchor="start">FactoryLM / Emre Kalem arm - fiducial marker sheet</text>
<text x="10" y="19.6" font-family="Helvetica, Arial, sans-serif" font-size="2.6" font-weight="normal" fill="#000000" text-anchor="start">ArUco DICT_4X4_50  -  13 stickers  -  quiet zone 1 module (already inside every white square)</text>
<text x="10" y="23.8" font-family="Helvetica, Arial, sans-serif" font-size="2.2" font-weight="normal" fill="#555555" text-anchor="start">Generated by Software/arm-vision/make_marker_sheet.py from Software/vision/markers.csv. Do not edit this SVG by hand.</text>
<line x1="10" y1="26.5" x2="200" y2="26.5" stroke="#000000" stroke-width="0.35"/>
<line x1="10" y1="36" x2="110" y2="36" stroke="#000000" stroke-width="0.3"/>
<line x1="10" y1="36" x2="10" y2="38.6" stroke="#000000" stroke-width="0.3"/>
<text x="10" y="41.6" font-family="Helvetica, Arial, sans-serif" font-size="2.2" font-weight="normal" fill="#000000" text-anchor="middle">0</text>
<line x1="15" y1="36" x2="15" y2="37.4" stroke="#000000" stroke-width="0.2"/>
<line x1="20" y1="36" x2="20" y2="38.6" stroke="#000000" stroke-width="0.3"/>
<line x1="25" y1="36" x2="25" y2="37.4" stroke="#000000" stroke-width="0.2"/>
<line x1="30" y1="36" x2="30" y2="38.6" stroke="#000000" stroke-width="0.3"/>
<text x="30" y="41.6" font-family="Helvetica, Arial, sans-serif" font-size="2.2" font-weight="normal" fill="#000000" text-anchor="middle">20</text>
<line x1="35" y1="36" x2="35" y2="37.4" stroke="#000000" stroke-width="0.2"/>
<line x1="40" y1="36" x2="40" y2="38.6" stroke="#000000" stroke-width="0.3"/>
<line x1="45" y1="36" x2="45" y2="37.4" stroke="#000000" stroke-width="0.2"/>
<line x1="50" y1="36" x2="50" y2="38.6" stroke="#000000" stroke-width="0.3"/>
<text x="50" y="41.6" font-family="Helvetica, Arial, sans-serif" font-size="2.2" font-weight="normal" fill="#000000" text-anchor="middle">40</text>
<line x1="55" y1="36" x2="55" y2="37.4" stroke="#000000" stroke-width="0.2"/>
<line x1="60" y1="36" x2="60" y2="38.6" stroke="#000000" stroke-width="0.3"/>
<line x1="65" y1="36" x2="65" y2="37.4" stroke="#000000" stroke-width="0.2"/>
<line x1="70" y1="36" x2="70" y2="38.6" stroke="#000000" stroke-width="0.3"/>
<text x="70" y="41.6" font-family="Helvetica, Arial, sans-serif" font-size="2.2" font-weight="normal" fill="#000000" text-anchor="middle">60</text>
<line x1="75" y1="36" x2="75" y2="37.4" stroke="#000000" stroke-width="0.2"/>
<line x1="80" y1="36" x2="80" y2="38.6" stroke="#000000" stroke-width="0.3"/>
<line x1="85" y1="36" x2="85" y2="37.4" stroke="#000000" stroke-width="0.2"/>
<line x1="90" y1="36" x2="90" y2="38.6" stroke="#000000" stroke-width="0.3"/>
<text x="90" y="41.6" font-family="Helvetica, Arial, sans-serif" font-size="2.2" font-weight="normal" fill="#000000" text-anchor="middle">80</text>
<line x1="95" y1="36" x2="95" y2="37.4" stroke="#000000" stroke-width="0.2"/>
<line x1="100" y1="36" x2="100" y2="38.6" stroke="#000000" stroke-width="0.3"/>
<line x1="105" y1="36" x2="105" y2="37.4" stroke="#000000" stroke-width="0.2"/>
<line x1="110" y1="36" x2="110" y2="38.6" stroke="#000000" stroke-width="0.3"/>
<text x="110" y="41.6" font-family="Helvetica, Arial, sans-serif" font-size="2.2" font-weight="normal" fill="#000000" text-anchor="middle">100</text>
<text x="60" y="34.2" font-family="Helvetica, Arial, sans-serif" font-size="2.6" font-weight="bold" fill="#000000" text-anchor="middle">100 mm - MEASURE THIS BEFORE CUTTING ANYTHING</text>
<text x="114" y="37.2" font-family="Helvetica, Arial, sans-serif" font-size="2.2" font-weight="normal" fill="#000000" text-anchor="start">If this line is not exactly 100 mm, the printer rescaled the page.</text>
<text x="114" y="40.4" font-family="Helvetica, Arial, sans-serif" font-size="2.2" font-weight="normal" fill="#000000" text-anchor="start">Reprint at Actual Size / 100% / Scale: None. Do NOT use Fit to Page.</text>
<rect x="10" y="50" width="53" height="58" rx="0.8" fill="#ffffff" stroke="#9a9a9a" stroke-width="0.15" stroke-dasharray="1.2 1.0"/>
<rect x="12.5" y="52.5" width="48" height="48" fill="#ffffff"/>
<rect x="18.5" y="58.5" width="36.01" height="6.01" fill="#000000"/>
<rect x="18.5" y="64.5" width="6.01" height="6.01" fill="#000000"/>
<rect x="30.5" y="64.5" width="6.01" height="6.01" fill="#000000"/>
<rect x="48.5" y="64.5" width="6.01" height="6.01" fill="#000000"/>
<rect x="18.5" y="70.5" width="12.01" height="6.01" fill="#000000"/>
<rect x="36.5" y="70.5" width="6.01" height="6.01" fill="#000000"/>
<rect x="48.5" y="70.5" width="6.01" height="6.01" fill="#000000"/>
<rect x="18.5" y="76.5" width="18.01" height="6.01" fill="#000000"/>
<rect x="48.5" y="76.5" width="6.01" height="6.01" fill="#000000"/>
<rect x="18.5" y="82.5" width="18.01" height="6.01" fill="#000000"/>
<rect x="42.5" y="82.5" width="12.01" height="6.01" fill="#000000"/>
<rect x="18.5" y="88.5" width="36.01" height="6.01" fill="#000000"/>
<path d="M 22.415 106.02 l 1.43 -2.21 l 1.43 2.21 z" fill="#000000"/>
<text x="26.275" y="106.41" font-family="Helvetica, Arial, sans-serif" font-size="2.6" font-weight="normal" fill="#000000" text-anchor="start">BASE-1  id0  36mm</text>
<rect x="67" y="50" width="53" height="58" rx="0.8" fill="#ffffff" stroke="#9a9a9a" stroke-width="0.15" stroke-dasharray="1.2 1.0"/>
<rect x="69.5" y="52.5" width="48" height="48" fill="#ffffff"/>
<rect x="75.5" y="58.5" width="36.01" height="6.01" fill="#000000"/>
<rect x="75.5" y="64.5" width="36.01" height="6.01" fill="#000000"/>
<rect x="75.5" y="70.5" width="6.01" height="6.01" fill="#000000"/>
<rect x="105.5" y="70.5" width="6.01" height="6.01" fill="#000000"/>
<rect x="75.5" y="76.5" width="6.01" height="6.01" fill="#000000"/>
<rect x="87.5" y="76.5" width="12.01" height="6.01" fill="#000000"/>
<rect x="105.5" y="76.5" width="6.01" height="6.01" fill="#000000"/>
<rect x="75.5" y="82.5" width="6.01" height="6.01" fill="#000000"/>
<rect x="87.5" y="82.5" width="6.01" height="6.01" fill="#000000"/>
<rect x="99.5" y="82.5" width="12.01" height="6.01" fill="#000000"/>
<rect x="75.5" y="88.5" width="36.01" height="6.01" fill="#000000"/>
<path d="M 79.415 106.02 l 1.43 -2.21 l 1.43 2.21 z" fill="#000000"/>
<text x="83.275" y="106.41" font-family="Helvetica, Arial, sans-serif" font-size="2.6" font-weight="normal" fill="#000000" text-anchor="start">BASE-2  id1  36mm</text>
<rect x="124" y="50" width="38.3333" height="43.3333" rx="0.8" fill="#ffffff" stroke="#9a9a9a" stroke-width="0.15" stroke-dasharray="1.2 1.0"/>
<rect x="126.5" y="52.5" width="33.3333" height="33.3333" fill="#ffffff"/>
<rect x="130.6667" y="56.6667" width="25.01" height="4.1767" fill="#000000"/>
<rect x="130.6667" y="60.8333" width="4.1767" height="4.1767" fill="#000000"/>
<rect x="143.1667" y="60.8333" width="12.51" height="4.1767" fill="#000000"/>
<rect x="130.6667" y="65" width="4.1767" height="4.1767" fill="#000000"/>
<rect x="151.5" y="65" width="4.1767" height="4.1767" fill="#000000"/>
<rect x="130.6667" y="69.1667" width="8.3433" height="4.1767" fill="#000000"/>
<rect x="143.1667" y="69.1667" width="4.1767" height="4.1767" fill="#000000"/>
<rect x="151.5" y="69.1667" width="4.1767" height="4.1767" fill="#000000"/>
<rect x="130.6667" y="73.3333" width="8.3433" height="4.1767" fill="#000000"/>
<rect x="147.3333" y="73.3333" width="8.3433" height="4.1767" fill="#000000"/>
<rect x="130.6667" y="77.5" width="25.01" height="4.1767" fill="#000000"/>
<path d="M 129.0817 91.3533 l 1.43 -2.21 l 1.43 2.21 z" fill="#000000"/>
<text x="132.9417" y="91.7433" font-family="Helvetica, Arial, sans-serif" font-size="2.6" font-weight="normal" fill="#000000" text-anchor="start">HAND-1  id9  25mm</text>
<rect x="166.3333" y="50" width="31.6667" height="36.6667" rx="0.8" fill="#ffffff" stroke="#9a9a9a" stroke-width="0.15" stroke-dasharray="1.2 1.0"/>
<rect x="168.8333" y="52.5" width="26.6667" height="26.6667" fill="#ffffff"/>
<rect x="172.1667" y="55.8333" width="20.01" height="3.3433" fill="#000000"/>
<rect x="172.1667" y="59.1667" width="10.01" height="3.3433" fill="#000000"/>
<rect x="188.8333" y="59.1667" width="3.3433" height="3.3433" fill="#000000"/>
<rect x="172.1667" y="62.5" width="10.01" height="3.3433" fill="#000000"/>
<rect x="188.8333" y="62.5" width="3.3433" height="3.3433" fill="#000000"/>
<rect x="172.1667" y="65.8333" width="10.01" height="3.3433" fill="#000000"/>
<rect x="185.5" y="65.8333" width="6.6767" height="3.3433" fill="#000000"/>
<rect x="172.1667" y="69.1667" width="3.3433" height="3.3433" fill="#000000"/>
<rect x="182.1667" y="69.1667" width="3.3433" height="3.3433" fill="#000000"/>
<rect x="188.8333" y="69.1667" width="3.3433" height="3.3433" fill="#000000"/>
<rect x="172.1667" y="72.5" width="20.01" height="3.3433" fill="#000000"/>
<path d="M 168.3333 84.6284 l 1.2698 -1.9625 l 1.2698 1.9625 z" fill="#000000"/>
<text x="171.873" y="84.9747" font-family="Helvetica, Arial, sans-serif" font-size="2.3088" font-weight="normal" fill="#000000" text-anchor="start">TURRET-1  id2  20mm</text>
<rect x="10" y="114" width="31.6667" height="36.6667" rx="0.8" fill="#ffffff" stroke="#9a9a9a" stroke-width="0.15" stroke-dasharray="1.2 1.0"/>
<rect x="12.5" y="116.5" width="26.6667" height="26.6667" fill="#ffffff"/>
<rect x="15.8333" y="119.8333" width="20.01" height="3.3433" fill="#000000"/>
<rect x="15.8333" y="123.1667" width="3.3433" height="3.3433" fill="#000000"/>
<rect x="22.5" y="123.1667" width="6.6767" height="3.3433" fill="#000000"/>
<rect x="32.5" y="123.1667" width="3.3433" height="3.3433" fill="#000000"/>
<rect x="15.8333" y="126.5" width="3.3433" height="3.3433" fill="#000000"/>
<rect x="22.5" y="126.5" width="6.6767" height="3.3433" fill="#000000"/>
<rect x="32.5" y="126.5" width="3.3433" height="3.3433" fill="#000000"/>
<rect x="15.8333" y="129.8333" width="6.6767" height="3.3433" fill="#000000"/>
<rect x="25.8333" y="129.8333" width="10.01" height="3.3433" fill="#000000"/>
<rect x="15.8333" y="133.1667" width="6.6767" height="3.3433" fill="#000000"/>
<rect x="29.1667" y="133.1667" width="6.6767" height="3.3433" fill="#000000"/>
<rect x="15.8333" y="136.5" width="20.01" height="3.3433" fill="#000000"/>
<path d="M 12 148.6284 l 1.2698 -1.9625 l 1.2698 1.9625 z" fill="#000000"/>
<text x="15.5397" y="148.9747" font-family="Helvetica, Arial, sans-serif" font-size="2.3088" font-weight="normal" fill="#000000" text-anchor="start">TURRET-2  id3  20mm</text>
<rect x="45.6667" y="114" width="28" height="32.6667" rx="0.8" fill="#ffffff" stroke="#9a9a9a" stroke-width="0.15" stroke-dasharray="1.2 1.0"/>
<rect x="48.3333" y="116.5" width="22.6667" height="22.6667" fill="#ffffff"/>
<rect x="51.1667" y="119.3333" width="17.01" height="2.8433" fill="#000000"/>
<rect x="51.1667" y="122.1667" width="5.6767" height="2.8433" fill="#000000"/>
<rect x="59.6667" y="122.1667" width="2.8433" height="2.8433" fill="#000000"/>
<rect x="65.3333" y="122.1667" width="2.8433" height="2.8433" fill="#000000"/>
<rect x="51.1667" y="125" width="5.6767" height="2.8433" fill="#000000"/>
<rect x="59.6667" y="125" width="8.51" height="2.8433" fill="#000000"/>
<rect x="51.1667" y="127.8333" width="2.8433" height="2.8433" fill="#000000"/>
<rect x="56.8333" y="127.8333" width="5.6767" height="2.8433" fill="#000000"/>
<rect x="65.3333" y="127.8333" width="2.8433" height="2.8433" fill="#000000"/>
<rect x="51.1667" y="130.6667" width="2.8433" height="2.8433" fill="#000000"/>
<rect x="62.5" y="130.6667" width="5.6767" height="2.8433" fill="#000000"/>
<rect x="51.1667" y="133.5" width="17.01" height="2.8433" fill="#000000"/>
<path d="M 47.6667 144.5303 l 1 -1.5455 l 1 1.5455 z" fill="#000000"/>
<text x="50.6667" y="144.803" font-family="Helvetica, Arial, sans-serif" font-size="1.8182" font-weight="normal" fill="#000000" text-anchor="start">SHOULDER-1  id4  17mm</text>
<rect x="77.6667" y="114" width="28" height="27.3333" rx="0.8" fill="#ffffff" stroke="#9a9a9a" stroke-width="0.15" stroke-dasharray="1.2 1.0"/>
<rect x="83" y="116.5" width="17.3333" height="17.3333" fill="#ffffff"/>
<rect x="85.1667" y="118.6667" width="13.01" height="2.1767" fill="#000000"/>
<rect x="85.1667" y="120.8333" width="2.1767" height="2.1767" fill="#000000"/>
<rect x="89.5" y="120.8333" width="4.3433" height="2.1767" fill="#000000"/>
<rect x="96" y="120.8333" width="2.1767" height="2.1767" fill="#000000"/>
<rect x="85.1667" y="123" width="2.1767" height="2.1767" fill="#000000"/>
<rect x="93.8333" y="123" width="4.3433" height="2.1767" fill="#000000"/>
<rect x="85.1667" y="125.1667" width="6.51" height="2.1767" fill="#000000"/>
<rect x="93.8333" y="125.1667" width="4.3433" height="2.1767" fill="#000000"/>
<rect x="85.1667" y="127.3333" width="2.1767" height="2.1767" fill="#000000"/>
<rect x="93.8333" y="127.3333" width="4.3433" height="2.1767" fill="#000000"/>
<rect x="85.1667" y="129.5" width="13.01" height="2.1767" fill="#000000"/>
<path d="M 79.6667 139.2515 l 1.15 -1.7773 l 1.15 1.7773 z" fill="#000000"/>
<text x="82.9667" y="139.5652" font-family="Helvetica, Arial, sans-serif" font-size="2.0909" font-weight="normal" fill="#000000" text-anchor="start">ELBOW-1  id6  13mm</text>
<rect x="109.6667" y="114" width="28" height="24.6667" rx="0.8" fill="#ffffff" stroke="#9a9a9a" stroke-width="0.15" stroke-dasharray="1.2 1.0"/>
<rect x="116.3333" y="116.5" width="14.6667" height="14.6667" fill="#ffffff"/>
<rect x="118.1667" y="118.3333" width="11.01" height="1.8433" fill="#000000"/>
<rect x="118.1667" y="120.1667" width="1.8433" height="1.8433" fill="#000000"/>
<rect x="127.3333" y="120.1667" width="1.8433" height="1.8433" fill="#000000"/>
<rect x="118.1667" y="122" width="1.8433" height="1.8433" fill="#000000"/>
<rect x="125.5" y="122" width="3.6767" height="1.8433" fill="#000000"/>
<rect x="118.1667" y="123.8333" width="1.8433" height="1.8433" fill="#000000"/>
<rect x="123.6667" y="123.8333" width="1.8433" height="1.8433" fill="#000000"/>
<rect x="127.3333" y="123.8333" width="1.8433" height="1.8433" fill="#000000"/>
<rect x="118.1667" y="125.6667" width="1.8433" height="1.8433" fill="#000000"/>
<rect x="121.8333" y="125.6667" width="1.8433" height="1.8433" fill="#000000"/>
<rect x="125.5" y="125.6667" width="3.6767" height="1.8433" fill="#000000"/>
<rect x="118.1667" y="127.5" width="11.01" height="1.8433" fill="#000000"/>
<path d="M 111.6667 136.5848 l 1.15 -1.7773 l 1.15 1.7773 z" fill="#000000"/>
<text x="114.9667" y="136.8985" font-family="Helvetica, Arial, sans-serif" font-size="2.0909" font-weight="normal" fill="#000000" text-anchor="start">WRIST-1  id8  11mm</text>
<rect x="141.6667" y="114" width="28" height="20.6667" rx="0.8" fill="#ffffff" stroke="#9a9a9a" stroke-width="0.15" stroke-dasharray="1.2 1.0"/>
<rect x="150.3333" y="116.5" width="10.6667" height="10.6667" fill="#ffffff"/>
<rect x="151.6667" y="117.8333" width="8.01" height="1.3433" fill="#000000"/>
<rect x="151.6667" y="119.1667" width="2.6767" height="1.3433" fill="#000000"/>
<rect x="158.3333" y="119.1667" width="1.3433" height="1.3433" fill="#000000"/>
<rect x="151.6667" y="120.5" width="1.3433" height="1.3433" fill="#000000"/>
<rect x="154.3333" y="120.5" width="2.6767" height="1.3433" fill="#000000"/>
<rect x="158.3333" y="120.5" width="1.3433" height="1.3433" fill="#000000"/>
<rect x="151.6667" y="121.8333" width="1.3433" height="1.3433" fill="#000000"/>
<rect x="155.6667" y="121.8333" width="4.01" height="1.3433" fill="#000000"/>
<rect x="151.6667" y="123.1667" width="1.3433" height="1.3433" fill="#000000"/>
<rect x="155.6667" y="123.1667" width="1.3433" height="1.3433" fill="#000000"/>
<rect x="158.3333" y="123.1667" width="1.3433" height="1.3433" fill="#000000"/>
<rect x="151.6667" y="124.5" width="8.01" height="1.3433" fill="#000000"/>
<path d="M 143.6667 132.5468 l 1.0455 -1.6157 l 1.0455 1.6157 z" fill="#000000"/>
<text x="146.7576" y="132.832" font-family="Helvetica, Arial, sans-serif" font-size="1.9008" font-weight="normal" fill="#000000" text-anchor="start">SHOULDER-2  id5  8mm</text>
<rect x="10" y="156.6667" width="28" height="20.6667" rx="0.8" fill="#ffffff" stroke="#9a9a9a" stroke-width="0.15" stroke-dasharray="1.2 1.0"/>
<rect x="18.6667" y="159.1667" width="10.6667" height="10.6667" fill="#ffffff"/>
<rect x="20" y="160.5" width="8.01" height="1.3433" fill="#000000"/>
<rect x="20" y="161.8333" width="1.3433" height="1.3433" fill="#000000"/>
<rect x="26.6667" y="161.8333" width="1.3433" height="1.3433" fill="#000000"/>
<rect x="20" y="163.1667" width="1.3433" height="1.3433" fill="#000000"/>
<rect x="22.6667" y="163.1667" width="2.6767" height="1.3433" fill="#000000"/>
<rect x="26.6667" y="163.1667" width="1.3433" height="1.3433" fill="#000000"/>
<rect x="20" y="164.5" width="1.3433" height="1.3433" fill="#000000"/>
<rect x="22.6667" y="164.5" width="2.6767" height="1.3433" fill="#000000"/>
<rect x="26.6667" y="164.5" width="1.3433" height="1.3433" fill="#000000"/>
<rect x="20" y="165.8333" width="5.3433" height="1.3433" fill="#000000"/>
<rect x="26.6667" y="165.8333" width="1.3433" height="1.3433" fill="#000000"/>
<rect x="20" y="167.1667" width="8.01" height="1.3433" fill="#000000"/>
<path d="M 12 175.2735 l 1.2105 -1.8708 l 1.2105 1.8708 z" fill="#000000"/>
<text x="15.4211" y="175.6037" font-family="Helvetica, Arial, sans-serif" font-size="2.201" font-weight="normal" fill="#000000" text-anchor="start">HAND-2  id10  8mm</text>
<rect x="42" y="156.6667" width="28" height="18" rx="0.8" fill="#ffffff" stroke="#9a9a9a" stroke-width="0.15" stroke-dasharray="1.2 1.0"/>
<rect x="52" y="159.1667" width="8" height="8" fill="#ffffff"/>
<rect x="53" y="160.1667" width="6.01" height="1.01" fill="#000000"/>
<rect x="53" y="161.1667" width="1.01" height="1.01" fill="#000000"/>
<rect x="56" y="161.1667" width="3.01" height="1.01" fill="#000000"/>
<rect x="53" y="162.1667" width="2.01" height="1.01" fill="#000000"/>
<rect x="56" y="162.1667" width="3.01" height="1.01" fill="#000000"/>
<rect x="53" y="163.1667" width="1.01" height="1.01" fill="#000000"/>
<rect x="58" y="163.1667" width="1.01" height="1.01" fill="#000000"/>
<rect x="53" y="164.1667" width="3.01" height="1.01" fill="#000000"/>
<rect x="57" y="164.1667" width="2.01" height="1.01" fill="#000000"/>
<rect x="53" y="165.1667" width="6.01" height="1.01" fill="#000000"/>
<path d="M 44 172.6069 l 1.2105 -1.8708 l 1.2105 1.8708 z" fill="#000000"/>
<text x="47.4211" y="172.937" font-family="Helvetica, Arial, sans-serif" font-size="2.201" font-weight="normal" fill="#000000" text-anchor="start">ELBOW-2  id7  6mm</text>
<rect x="74" y="156.6667" width="28" height="18" rx="0.8" fill="#ffffff" stroke="#9a9a9a" stroke-width="0.15" stroke-dasharray="1.2 1.0"/>
<rect x="84" y="159.1667" width="8" height="8" fill="#ffffff"/>
<rect x="85" y="160.1667" width="6.01" height="1.01" fill="#000000"/>
<rect x="85" y="161.1667" width="4.01" height="1.01" fill="#000000"/>
<rect x="90" y="161.1667" width="1.01" height="1.01" fill="#000000"/>
<rect x="85" y="162.1667" width="4.01" height="1.01" fill="#000000"/>
<rect x="90" y="162.1667" width="1.01" height="1.01" fill="#000000"/>
<rect x="85" y="163.1667" width="1.01" height="1.01" fill="#000000"/>
<rect x="87" y="163.1667" width="1.01" height="1.01" fill="#000000"/>
<rect x="89" y="163.1667" width="2.01" height="1.01" fill="#000000"/>
<rect x="85" y="164.1667" width="2.01" height="1.01" fill="#000000"/>
<rect x="90" y="164.1667" width="1.01" height="1.01" fill="#000000"/>
<rect x="85" y="165.1667" width="6.01" height="1.01" fill="#000000"/>
<path d="M 76 172.5649 l 1.0952 -1.6926 l 1.0952 1.6926 z" fill="#000000"/>
<text x="79.1905" y="172.8636" font-family="Helvetica, Arial, sans-serif" font-size="1.9913" font-weight="normal" fill="#000000" text-anchor="start">FINGER-A  id11  6mm</text>
<rect x="106" y="156.6667" width="28" height="18" rx="0.8" fill="#ffffff" stroke="#9a9a9a" stroke-width="0.15" stroke-dasharray="1.2 1.0"/>
<rect x="116" y="159.1667" width="8" height="8" fill="#ffffff"/>
<rect x="117" y="160.1667" width="6.01" height="1.01" fill="#000000"/>
<rect x="117" y="161.1667" width="6.01" height="1.01" fill="#000000"/>
<rect x="117" y="162.1667" width="1.01" height="1.01" fill="#000000"/>
<rect x="121" y="162.1667" width="2.01" height="1.01" fill="#000000"/>
<rect x="117" y="163.1667" width="1.01" height="1.01" fill="#000000"/>
<rect x="119" y="163.1667" width="1.01" height="1.01" fill="#000000"/>
<rect x="122" y="163.1667" width="1.01" height="1.01" fill="#000000"/>
<rect x="117" y="164.1667" width="2.01" height="1.01" fill="#000000"/>
<rect x="122" y="164.1667" width="1.01" height="1.01" fill="#000000"/>
<rect x="117" y="165.1667" width="6.01" height="1.01" fill="#000000"/>
<path d="M 108 172.5649 l 1.0952 -1.6926 l 1.0952 1.6926 z" fill="#000000"/>
<text x="111.1905" y="172.8636" font-family="Helvetica, Arial, sans-serif" font-size="1.9913" font-weight="normal" fill="#000000" text-anchor="start">FINGER-B  id12  6mm</text>
<line x1="10" y1="189.3333" x2="200" y2="189.3333" stroke="#000000" stroke-width="0.35"/>
<text x="10" y="194.5333" font-family="Helvetica, Arial, sans-serif" font-size="3.2" font-weight="bold" fill="#000000" text-anchor="start">BEFORE YOU CUT</text>
<text x="10" y="199.1333" font-family="Helvetica, Arial, sans-serif" font-size="2.35" font-weight="normal" fill="#000000" text-anchor="start">1. Print at Actual Size / 100%. Check the 100 mm rule above with a steel rule. Everything on this sheet is wrong if that fails.</text>
<text x="10" y="202.6333" font-family="Helvetica, Arial, sans-serif" font-size="2.35" font-weight="normal" fill="#000000" text-anchor="start">2. Cut on the grey dashed line. The white ring between the line and the marker is SPARE quiet zone - keeping it is free and helps detection.</text>
<text x="10" y="206.1333" font-family="Helvetica, Arial, sans-serif" font-size="2.35" font-weight="normal" fill="#000000" text-anchor="start">3. Never write, stamp or stick anything inside the white square. Ink in the quiet zone breaks detection. The printed label is deliberately outside it.</text>
<text x="10" y="209.6333" font-family="Helvetica, Arial, sans-serif" font-size="2.35" font-weight="normal" fill="#000000" text-anchor="start">4. The arrow on each label is UP. Apply the sticker that way up every time - a re-applied sticker at a different rotation silently flips the residual sign.</text>
<text x="10" y="213.1333" font-family="Helvetica, Arial, sans-serif" font-size="2.35" font-weight="normal" fill="#000000" text-anchor="start">5. The number on the label (e.g. 36mm) is the BLACK SQUARE edge. That is the value you pass to cv2.aruco / solvePnP as the marker length -</text>
<text x="10" y="216.6333" font-family="Helvetica, Arial, sans-serif" font-size="2.35" font-weight="normal" fill="#000000" text-anchor="start">   NOT the size of the white square you cut out, and NOT the size of the paper card.</text>
<text x="10" y="220.1333" font-family="Helvetica, Arial, sans-serif" font-size="2.35" font-weight="normal" fill="#000000" text-anchor="start">6. Matte paper or matte label stock. A gloss finish specular-highlights under the bench lamp and blinds the detector at exactly the angles you care about.</text>
<text x="10" y="223.6333" font-family="Helvetica, Arial, sans-serif" font-size="2.35" font-weight="normal" fill="#000000" text-anchor="start">7. Stick each marker only where docs/marker_placement_diagram.svg says. Several faces that look ideal are inner channel walls you cannot reach.</text>
<text x="10" y="229.1333" font-family="Helvetica, Arial, sans-serif" font-size="2.35" font-weight="bold" fill="#000000" text-anchor="start">WHAT THIS SHEET IS NOT: a measurement. These are blanks. A sticker yields a CHANGE in orientation, not a joint angle, until the two</text>
<text x="10" y="232.6333" font-family="Helvetica, Arial, sans-serif" font-size="2.35" font-weight="normal" fill="#000000" text-anchor="start">calibration passes in Documentation/MARKER-SYSTEM.md section 6 have been run. Detection grades are on the placement diagram, not here:</text>
<text x="10" y="236.1333" font-family="Helvetica, Arial, sans-serif" font-size="2.35" font-weight="normal" fill="#000000" text-anchor="start">a grade depends on the camera standoff and on an UNVERIFIED focal length, and a number that can be wrong should not look authoritative.</text>
<text x="105" y="291" font-family="Helvetica, Arial, sans-serif" font-size="2.1" font-weight="normal" fill="#555555" text-anchor="middle">Sources: Software/vision/markers.csv - Software/vision/stl-face-survey.csv - Documentation/MARKER-SYSTEM.md</text>
</svg>
